# xmcd
# 
# Track frame offsets:
#     150
#     16125
#     30397
#     34547
#     56257
#     73317
#     95372
#     97502
#     118982
#     131742
#     136550
#     158342
#     170250
#     184422
#     198227
# 
# Disc length: 2744
# 
# Revision: 4
# Processed by: cddbd v1.5.2PL0 Copyright (c) Steve Scherf et al.
# Submitted via: BonkEnc v1.0
# 
DISCID=b30ab60f
DTITLE=Marina Lima - Abrigo
DYEAR=0
DGENRE=MPB
TTITLE0=Admito que perdi
TTITLE1=Quatro letras
TTITLE2=Cidade
TTITLE3=Nem luxo nem lixo
TTITLE4=Linhas tortas
TTITLE5=Beija-flor
TTITLE6=Rap da diferenca
TTITLE7=Samba do aviao
TTITLE8=O que tinha que ser
TTITLE9=Mantra: beije e me ame
TTITLE10=Carne e osso
TTITLE11=Liberou geral
TTITLE12=Blue skies
TTITLE13=Casa e jardim
TTITLE14=Tempestade
EXTD=
EXTT0=
EXTT1=
EXTT2=
EXTT3=
EXTT4=
EXTT5=
EXTT6=
EXTT7=
EXTT8=
EXTT9=
EXTT10=
EXTT11=
EXTT12=
EXTT13=
EXTT14=
PLAYORDER=
